<svg width="100" height="100" viewBox="0 0 100 100" fill="none" xmlns="http://www.w3.org/2000/svg">
<g filter="url(#filter0_d_1_7847)">
<path d="M69.6948 57.4742H67.7317V45.2049C67.7317 35.4484 59.8205 27.5371 50.0639 27.5371C40.3074 27.5371 32.3961 35.4484 32.3961 45.2049V57.4742H30.433C29.6281 57.4742 28.9607 58.1417 28.9607 58.9466C28.9607 59.7514 29.6281 60.4189 30.433 60.4189H69.6948C70.4997 60.4189 71.1672 59.7514 71.1672 58.9466C71.1672 58.1417 70.4997 57.4742 69.6948 57.4742Z" fill="#FF6565"/>
<path d="M50.0637 23.1204C49.2589 23.1204 48.5914 22.4529 48.5914 21.6481V19.685C48.5914 18.8801 49.2589 18.2126 50.0637 18.2126C50.8686 18.2126 51.5361 18.8801 51.5361 19.685V21.6481C51.5361 22.4529 50.8686 23.1204 50.0637 23.1204Z" fill="#FF6565"/>
<path d="M36.322 27.0466C35.949 27.0466 35.576 26.9092 35.2815 26.6147L33.3185 24.6516C32.7492 24.0824 32.7492 23.1401 33.3185 22.5708C33.8877 22.0015 34.83 22.0015 35.3993 22.5708L37.3624 24.5339C37.9317 25.1032 37.9317 26.0454 37.3624 26.6147C37.068 26.9092 36.695 27.0466 36.322 27.0466Z" fill="#FF6565"/>
<path d="M63.8052 27.0466C63.4322 27.0466 63.0592 26.9092 62.7647 26.6147C62.1954 26.0454 62.1954 25.1032 62.7647 24.5339L64.7278 22.5708C65.2971 22.0015 66.2394 22.0015 66.8087 22.5708C67.378 23.1401 67.378 24.0824 66.8087 24.6516L64.8456 26.6147C64.5512 26.9092 64.1782 27.0466 63.8052 27.0466Z" fill="#FF6565"/>
</g>
<defs>
<filter id="filter0_d_1_7847" x="0.525532" y="0.835604" width="99.0767" height="99.0766" filterUnits="userSpaceOnUse" color-interpolation-filters="sRGB">
<feFlood flood-opacity="0" result="BackgroundImageFix"/>
<feColorMatrix in="SourceAlpha" type="matrix" values="0 0 0 0 0 0 0 0 0 0 0 0 0 0 0 0 0 0 127 0" result="hardAlpha"/>
<feOffset dy="11.0581"/>
<feGaussianBlur stdDeviation="14.2176"/>
<feComposite in2="hardAlpha" operator="out"/>
<feColorMatrix type="matrix" values="0 0 0 0 1 0 0 0 0 0.395455 0 0 0 0 0.395455 0 0 0 0.7 0"/>
<feBlend mode="normal" in2="BackgroundImageFix" result="effect1_dropShadow_1_7847"/>
<feBlend mode="normal" in="SourceGraphic" in2="effect1_dropShadow_1_7847" result="shape"/>
</filter>
</defs>
</svg>
