<svg width="41" height="55" viewBox="0 0 41 55" fill="none" xmlns="http://www.w3.org/2000/svg">
<path d="M12.3752 5.06513C12.3481 5.44428 12.321 5.93176 12.321 6.4734C12.321 7.5296 13.1606 8.36914 14.2168 8.36914L26.81 8.36914C27.8662 8.36914 28.7057 7.5296 28.7057 6.4734C28.7057 5.93176 28.6786 5.47136 28.6515 5.01096C28.1641 0.786161 25.185 0.786163 23.0185 0.786163L17.9812 0.786163C15.8146 0.786163 12.8356 0.786163 12.3752 5.06513Z" fill="#8AE37B"/>
<path fill-rule="evenodd" clip-rule="evenodd" d="M0.977661 40.4614L0.97766 25.3496C0.977659 14.246 4.36292 10.8607 15.4666 10.8607L25.5411 10.8607C36.6447 10.8607 40.03 14.246 40.03 25.3496L40.03 40.4614C40.03 51.5651 36.6447 54.9503 25.5411 54.9503L15.4666 54.9503C4.36292 54.9503 0.977661 51.5651 0.977661 40.4614ZM26.794 37.8177C26.8752 37.7364 26.9565 37.6281 27.0106 37.5198C27.796 36.1386 27.796 34.5137 27.0648 33.1325C26.2523 31.7513 24.8441 30.9388 23.2462 30.9388L17.8027 30.9388C17.6673 30.9388 17.559 30.8847 17.5048 30.7763C17.4923 30.745 17.4827 30.7152 17.4743 30.6891C17.4465 30.6029 17.4321 30.5582 17.3705 30.6395L21.838 24.71C22.515 23.8162 22.3254 22.5434 21.4317 21.8663C20.538 21.1893 19.2652 21.3789 18.5881 22.2726L13.9571 28.3931C13.1717 29.7743 13.1717 31.3992 13.9571 32.7804C14.7695 34.1616 16.1778 34.9741 17.7757 34.9741L23.165 34.9741C23.3004 34.9741 23.4087 35.0282 23.4629 35.1366C23.5171 35.2178 23.5441 35.299 23.5171 35.3803L18.6423 41.0946C17.9111 41.9612 18.0194 43.2341 18.8589 43.9653C19.2381 44.2903 19.7256 44.4528 20.186 44.4528C20.7547 44.4528 21.3234 44.209 21.7296 43.7487L26.794 37.8177Z" fill="#8AE37B"/>
</svg>
