<svg width="40" height="40" viewBox="0 0 40 40" fill="none" xmlns="http://www.w3.org/2000/svg">
<path d="M6.99165 32.5698H32.7826V6.77888L6.99165 6.77888L6.99165 32.5698Z" fill="white"/>
<path d="M19.887 0.135498C9.12122 0.135498 0.348389 8.90832 0.348389 19.6741C0.348389 30.4399 9.12122 39.2127 19.887 39.2127C30.6527 39.2127 39.4256 30.4399 39.4256 19.6741C39.4256 8.90832 30.6527 0.135498 19.887 0.135498ZM18.4216 11.8587C18.4216 11.0576 19.0859 10.3933 19.887 10.3933C20.6881 10.3933 21.3524 11.0576 21.3524 11.8587V21.6279C21.3524 22.429 20.6881 23.0933 19.887 23.0933C19.0859 23.0933 18.4216 22.429 18.4216 21.6279V11.8587ZM21.6845 28.232C21.5868 28.486 21.4501 28.6814 21.2742 28.8768C21.0788 29.0526 20.8639 29.1894 20.6294 29.2871C20.395 29.3848 20.141 29.4434 19.887 29.4434C19.633 29.4434 19.379 29.3848 19.1445 29.2871C18.91 29.1894 18.6951 29.0526 18.4997 28.8768C18.3239 28.6814 18.1871 28.486 18.0894 28.232C17.9917 27.9975 17.9331 27.7435 17.9331 27.4895C17.9331 27.2355 17.9917 26.9815 18.0894 26.7471C18.1871 26.5126 18.3239 26.2977 18.4997 26.1023C18.6951 25.9264 18.91 25.7897 19.1445 25.692C19.6134 25.4966 20.1605 25.4966 20.6294 25.692C20.8639 25.7897 21.0788 25.9264 21.2742 26.1023C21.4501 26.2977 21.5868 26.5126 21.6845 26.7471C21.7822 26.9815 21.8408 27.2355 21.8408 27.4895C21.8408 27.7435 21.7822 27.9975 21.6845 28.232Z" fill="#FF6565"/>
</svg>
