<svg width="55" height="55" viewBox="0 0 55 55" fill="none" xmlns="http://www.w3.org/2000/svg">
<path d="M0.587891 27.797C0.587891 12.8972 12.7294 0.755737 27.6291 0.755737C42.5288 0.755737 54.6704 12.8972 54.6704 27.797C54.6704 42.6967 42.5288 54.8382 27.6291 54.8382C12.7294 54.8382 0.587891 42.6967 0.587891 27.797Z" fill="#FF6565"/>
<path d="M27.2805 19.0877C27.1599 19.0888 27.0408 19.1139 26.9299 19.1614C26.819 19.2088 26.7186 19.2778 26.6342 19.3644C26.5499 19.4509 26.4834 19.5533 26.4385 19.6657C26.3936 19.7781 26.3713 19.8982 26.3727 20.0193V27.3876C26.3727 27.632 26.4695 27.8664 26.6415 28.0392C26.8136 28.212 27.047 28.3091 27.2903 28.3091C27.5337 28.3091 27.767 28.212 27.9391 28.0392C28.1112 27.8664 28.2079 27.632 28.208 27.3876V20.0193C28.2094 19.8965 28.1864 19.7747 28.1403 19.661C28.0942 19.5474 28.0259 19.4441 27.9395 19.3573C27.8531 19.2705 27.7503 19.202 27.6371 19.1556C27.5239 19.1093 27.4027 19.0862 27.2805 19.0877ZM32.6289 20.9347C32.5991 20.9338 32.5692 20.9344 32.5394 20.9365C32.3581 20.9519 32.1855 21.0212 32.0436 21.1355C31.9016 21.2497 31.7967 21.4038 31.7422 21.5781C31.6877 21.7524 31.686 21.9391 31.7374 22.1143C31.7888 22.2896 31.891 22.4455 32.0309 22.5623C33.6189 23.9169 34.6236 25.9329 34.6236 28.1969C34.6236 32.2847 31.3555 35.5796 27.2948 35.5796C23.2341 35.5796 19.9589 32.2847 19.9589 28.1969C19.9589 25.946 20.9508 23.9436 22.523 22.5893C22.6145 22.5108 22.6898 22.4148 22.7445 22.3071C22.7992 22.1993 22.8323 22.0818 22.8418 21.9612C22.8512 21.8407 22.837 21.7194 22.7998 21.6044C22.7626 21.4894 22.7032 21.3828 22.6251 21.2908C22.5469 21.1988 22.4514 21.1232 22.3441 21.0682C22.2368 21.0133 22.1198 20.9801 21.9998 20.9705C21.8797 20.961 21.759 20.9754 21.6444 21.0127C21.5299 21.0501 21.4238 21.1097 21.3322 21.1882C19.3697 22.8789 18.1235 25.3989 18.1235 28.1969C18.1235 33.2784 22.2415 37.4212 27.2948 37.4212C32.3481 37.4212 36.4571 33.2784 36.4571 28.1969C36.4571 25.3826 35.1987 22.8522 33.2162 21.1613C33.0532 21.0185 32.8452 20.9383 32.6289 20.9347H32.6289Z" fill="white"/>
</svg>
